<svg xmlns="http://www.w3.org/2000/svg" viewBox="0 0 256 256" width="256" height="256" role="img" aria-label="EmpowerAI">
  <defs>
    <linearGradient id="g" x1="0" y1="0" x2="1" y2="1">
      <stop offset="0" stop-color="#6366f1"/>
      <stop offset="1" stop-color="#22c55e"/>
    </linearGradient>
    <filter id="s" x="-20%" y="-20%" width="140%" height="140%">
      <feDropShadow dx="0" dy="6" stdDeviation="10" flood-color="#000" flood-opacity="0.25"/>
    </filter>
  </defs>
  <rect x="24" y="24" width="208" height="208" rx="56" fill="url(#g)" filter="url(#s)"/>
  <path fill="#fff" d="M92 80h74c8.8 0 16 7.2 16 16v6c0 8.8-7.2 16-16 16H110v18h52c8.8 0 16 7.2 16 16v8c0 8.8-7.2 16-16 16H92c-6.6 0-12-5.4-12-12V92c0-6.6 5.4-12 12-12zm18 22v16h52v-16h-52zm0 56v18h50v-18h-50z"/>
</svg>

